<?xml version="1.0" encoding="UTF-8" standalone="no"?>
<svg
   xmlns:dc="http://purl.org/dc/elements/1.1/"
   xmlns:cc="http://creativecommons.org/ns#"
   xmlns:rdf="http://www.w3.org/1999/02/22-rdf-syntax-ns#"
   xmlns:svg="http://www.w3.org/2000/svg"
   xmlns="http://www.w3.org/2000/svg"
   xmlns:sodipodi="http://sodipodi.sourceforge.net/DTD/sodipodi-0.dtd"
   xmlns:inkscape="http://www.inkscape.org/namespaces/inkscape"
   version="1.1"
   id="mdi-folder-plus-outline"
   width="24"
   height="24"
   viewBox="0 0 24 24"
   sodipodi:docname="group-clone.svg"
   inkscape:version="1.0.2 (e86c870879, 2021-01-15)">
  <metadata
     id="metadata139">
    <rdf:RDF>
      <cc:Work
         rdf:about="">
        <dc:format>image/svg+xml</dc:format>
        <dc:type
           rdf:resource="http://purl.org/dc/dcmitype/StillImage" />
        <dc:title></dc:title>
      </cc:Work>
    </rdf:RDF>
  </metadata>
  <defs
     id="defs137" />
  <sodipodi:namedview
     pagecolor="#ffffff"
     bordercolor="#666666"
     borderopacity="1"
     objecttolerance="10"
     gridtolerance="10"
     guidetolerance="10"
     inkscape:pageopacity="0"
     inkscape:pageshadow="2"
     inkscape:window-width="1920"
     inkscape:window-height="1007"
     id="namedview135"
     showgrid="false"
     inkscape:zoom="11.313709"
     inkscape:cx="24.238212"
     inkscape:cy="18.787485"
     inkscape:window-x="0"
     inkscape:window-y="0"
     inkscape:window-maximized="1"
     inkscape:current-layer="mdi-folder-plus-outline" />
  <g
     id="g189">
    <g
       id="g193">
      <g
         id="g224">
        <g
           id="g228">
          <path
             id="path132-3"
             d="M 6 2.5800781 C 4.89 2.5800781 4 3.4700781 4 4.5800781 L 4 6.1523438 L 2.0488281 6.1445312 C 0.93884672 6.1381111 0.048828125 7.0345312 0.048828125 8.1445312 L 0.048828125 20.144531 C 0.048828125 21.254531 0.93882815 22.144531 2.0488281 22.144531 L 18.048828 22.144531 C 19.158828 22.144531 20.054828 21.254515 20.048828 20.144531 L 20.039062 18.580078 L 22 18.580078 C 23.11 18.580078 24 17.690078 24 16.580078 L 24 6.5800781 C 24 5.4700781 23.11 4.5800781 22 4.5800781 L 14 4.5800781 L 12 2.5800781 L 6 2.5800781 z M 6 6.5800781 L 22 6.5800781 L 22 16.580078 L 6 16.580078 L 6 6.5800781 z M 16 8.5800781 L 16 10.580078 L 14 10.580078 L 14 12.580078 L 16 12.580078 L 16 14.580078 L 18 14.580078 L 18 12.580078 L 20 12.580078 L 20 10.580078 L 18 10.580078 L 18 8.5800781 L 16 8.5800781 z M 2.0488281 10.144531 L 4 10.158203 L 4 16.580078 C 4 17.690078 4.89 18.580078 6 18.580078 L 18.052734 18.580078 L 18.048828 20.144531 L 2.0488281 20.144531 L 2.0488281 10.144531 z " />
        </g>
      </g>
    </g>
  </g>
</svg>
